<svg width="247" height="202" viewBox="0 0 247 202" fill="none" xmlns="http://www.w3.org/2000/svg">
<path d="M175.112 119.025C174.402 121.69 172.426 123.954 169.31 125.739C166.191 127.527 161.984 128.799 156.955 129.482C146.901 130.848 133.726 129.839 119.829 126.094C105.932 122.351 94.0196 116.6 85.9918 110.363C81.9765 107.242 78.9661 104.026 77.1533 100.91C75.3426 97.7973 74.7571 94.8429 75.4672 92.178C76.1773 89.5135 78.1537 87.2494 81.2693 85.4638C84.389 83.6766 88.5955 82.4042 93.6241 81.7212C103.678 80.3549 116.854 81.3644 130.751 85.1087C144.648 88.8526 156.56 94.6025 164.588 100.84C168.603 103.96 171.614 107.177 173.426 110.293C175.237 113.406 175.822 116.36 175.112 119.025V119.025Z" stroke="#8500FF" stroke-width="3"/>
<path d="M203.174 125.675C200.011 137.364 188.587 145.845 172.336 149.961C156.114 154.069 135.265 153.766 113.65 148.029C92.0357 142.293 73.826 132.231 61.8514 120.639C49.8556 109.028 44.243 96.0254 47.4055 84.3355C50.568 72.6452 61.9925 64.1643 78.243 60.049C94.4652 55.9408 115.315 56.2444 136.93 61.9805C158.544 67.7167 176.753 77.7793 188.728 89.3704C200.724 100.982 206.337 113.984 203.174 125.675V125.675Z" stroke="#8500FF" stroke-width="3"/>
<path d="M226.448 129.496C221.756 146.962 206.361 159.913 185.042 166.641C163.733 173.366 136.617 173.828 108.758 166.382C80.8994 158.936 57.647 145.012 42.564 128.56C27.4738 112.101 20.6336 93.2065 25.3252 75.7409C30.0169 58.2748 45.4114 45.3238 66.7305 38.5956C88.0395 31.8703 115.157 31.4088 143.015 38.8545C170.873 46.3007 194.126 60.225 209.209 76.6768C224.299 93.1366 231.14 112.03 226.448 129.496Z" stroke="#8500FF" stroke-width="3"/>
<path d="M146.785 73.4974C164.213 85.4075 168.714 109.169 156.844 126.568C144.973 143.968 121.222 148.423 103.794 136.512C86.3661 124.602 81.8653 100.841 93.7358 83.4414C105.607 66.0416 129.357 61.5873 146.785 73.4974V73.4974Z" stroke="#8500FF" stroke-width="3"/>
<path d="M125.201 89.4927H125.375C126.401 103.679 137.222 103.897 137.222 103.897C137.222 103.897 125.29 104.124 125.29 120.517C125.29 104.124 113.357 103.897 113.357 103.897C113.357 103.897 124.174 103.679 125.201 89.4927Z" fill="#8500FF"/>
<path d="M236.175 132.074C240.458 134.987 247 132.95 247 132.95C247 132.95 246.595 126.191 242.31 123.28C238.027 120.367 231.488 122.4 231.488 122.4C231.488 122.4 231.893 129.16 236.175 132.074Z" fill="#8500FF"/>
<path d="M3.28944 108.476C7.50847 113.042 15.3978 112.08 15.3978 112.08C15.3978 112.08 16.4418 103.713 12.2189 99.1495C7.99985 94.5831 0.114428 95.5431 0.114428 95.5431C0.114428 95.5431 -0.929594 103.91 3.28944 108.476Z" fill="#8500FF"/>
<path d="M138.416 188.531C134.461 188.531 131.256 191.47 131.256 195.094C131.256 198.719 134.461 201.657 138.416 201.657C142.37 201.657 145.575 198.719 145.575 195.094C145.575 191.47 142.37 188.531 138.416 188.531Z" fill="#8500FF"/>
<path d="M12.529 134.836C10.2225 134.836 8.35266 136.706 8.35266 139.012C8.35266 141.319 10.2225 143.188 12.529 143.188C14.8355 143.188 16.7053 141.319 16.7053 139.012C16.7053 136.706 14.8355 134.836 12.529 134.836Z" fill="#8500FF"/>
<path d="M82.9299 7.15942C80.6233 7.15942 78.7535 5.55673 78.7535 3.57971C78.7535 1.60269 80.6233 0 82.9299 0C85.2364 0 87.1062 1.60269 87.1062 3.57971C87.1062 5.55673 85.2364 7.15942 82.9299 7.15942Z" fill="#8500FF"/>
<path d="M211.203 70.4009C207.908 70.4009 205.237 67.7297 205.237 64.4347C205.237 61.1397 207.908 58.4685 211.203 58.4685C214.498 58.4685 217.169 61.1397 217.169 64.4347C217.169 67.7297 214.498 70.4009 211.203 70.4009Z" fill="#8500FF"/>
</svg>
