<svg width="290" height="193" viewBox="0 0 290 193" fill="none" xmlns="http://www.w3.org/2000/svg">
<path fill-rule="evenodd" clip-rule="evenodd" d="M33.8511 74.9335H92.9705C98.5201 74.9335 98.2656 70.3481 96.4528 68.7504C94.5948 67.1128 90.9238 67.777 90.9238 67.777C90.9238 67.777 89.8308 64.6929 86.2335 63.1913C83.0512 61.8632 79.7178 62.4953 79.7178 62.4953C79.7178 62.4953 79.7178 60.3787 77.6804 58.6256C75.6427 56.8725 72.926 57.043 72.926 57.043C72.926 57.043 71.0587 45.3713 58.5791 45.3713C46.0997 45.3713 44.6565 56.3611 44.6565 56.3611C44.6565 56.3611 41.8548 56.3611 39.8174 58.2358C37.7799 60.1098 37.5251 62.2395 37.5251 62.2395C37.5251 62.2395 30.7114 61.3183 28.6959 67.2167C27.4953 70.7325 29.9625 74.9335 33.8511 74.9335ZM31.7386 121.575H90.858C96.4077 121.575 96.1528 116.99 94.3403 115.392C92.4823 113.755 88.8113 114.419 88.8113 114.419C88.8113 114.419 87.7183 111.335 84.121 109.833C80.9387 108.505 77.6053 109.137 77.6053 109.137C77.6053 109.137 77.6053 107.02 75.5679 105.268C73.5302 103.514 70.8135 103.685 70.8135 103.685C70.8135 103.685 68.9459 92.013 56.4666 92.013C43.9869 92.013 42.544 103.003 42.544 103.003C42.544 103.003 39.7423 103.003 37.7049 104.877C35.6675 106.752 35.4126 108.882 35.4126 108.882C35.4126 108.882 28.5985 107.96 26.5834 113.859C25.3824 117.374 27.85 121.575 31.7386 121.575Z" fill="white" stroke="#D903FF" stroke-width="4"/>
<path fill-rule="evenodd" clip-rule="evenodd" d="M229.503 152.779H167.583C161.77 152.779 162.037 147.94 163.936 146.253C165.882 144.525 169.727 145.226 169.727 145.226C169.727 145.226 170.871 141.971 174.639 140.386C177.972 138.984 181.463 139.651 181.463 139.651C181.463 139.651 181.463 137.417 183.597 135.567C185.731 133.716 188.577 133.896 188.577 133.896C188.577 133.896 190.533 121.577 203.603 121.577C216.674 121.577 218.186 133.177 218.186 133.177C218.186 133.177 221.12 133.177 223.254 135.155C225.388 137.134 225.655 139.381 225.655 139.381C225.655 139.381 232.791 138.409 234.902 144.634C236.16 148.345 233.576 152.779 229.503 152.779Z" fill="white" stroke="#D903FF" stroke-width="4"/>
<path d="M164.244 74.6266H164.294C164.594 79.027 167.751 79.0945 167.751 79.0945C167.751 79.0945 164.27 79.165 164.27 84.2496C164.27 79.165 160.789 79.0945 160.789 79.0945C160.789 79.0945 163.944 79.027 164.244 74.6266ZM159.088 90.0666H159.139C159.439 94.467 162.595 94.5346 162.595 94.5346C162.595 94.5346 159.114 94.605 159.114 99.6896C159.114 94.605 155.633 94.5346 155.633 94.5346C155.633 94.5346 158.789 94.467 159.088 90.0666ZM86.9105 133.17H86.9611C87.2608 137.57 90.4173 137.638 90.4173 137.638C90.4173 137.638 86.9366 137.708 86.9366 142.793C86.9366 137.708 83.4557 137.638 83.4557 137.638C83.4557 137.638 86.6108 137.57 86.9105 133.17ZM99.4772 155.352H99.5278C99.8274 159.752 102.984 159.82 102.984 159.82C102.984 159.82 99.5033 159.891 99.5033 164.975C99.5033 159.891 96.0223 159.82 96.0223 159.82C96.0223 159.82 99.1775 159.752 99.4772 155.352ZM189.377 155.365H189.428C189.727 159.765 192.884 159.833 192.884 159.833C192.884 159.833 189.403 159.903 189.403 164.988C189.403 159.903 185.922 159.833 185.922 159.833C185.922 159.833 189.078 159.765 189.377 155.365ZM58.555 134.42H58.6056C58.9052 138.82 62.0617 138.888 62.0617 138.888C62.0617 138.888 58.5811 138.958 58.5811 144.043C58.5811 138.958 55.1001 138.888 55.1001 138.888C55.1001 138.888 58.2553 138.82 58.555 134.42ZM75.6327 146.643H75.6833C75.983 151.043 79.1395 151.111 79.1395 151.111C79.1395 151.111 75.6588 151.182 75.6588 156.266C75.6588 151.182 72.1779 151.111 72.1779 151.111C72.1779 151.111 75.3331 151.043 75.6327 146.643ZM144.588 79.4516H144.639C144.939 83.852 148.095 83.9196 148.095 83.9196C148.095 83.9196 144.614 83.99 144.614 89.0746C144.614 83.99 141.133 83.9196 141.133 83.9196C141.133 83.9196 144.289 83.852 144.588 79.4516ZM150.711 60.1516H150.761C151.061 64.552 154.217 64.6195 154.217 64.6195C154.217 64.6195 150.737 64.69 150.737 69.7746C150.737 64.69 147.256 64.6195 147.256 64.6195C147.256 64.6195 150.411 64.552 150.711 60.1516ZM162.633 50.1799H162.683C162.983 54.5803 166.139 54.6479 166.139 54.6479C166.139 54.6479 162.659 54.7183 162.659 59.8029C162.659 54.7183 159.178 54.6479 159.178 54.6479C159.178 54.6479 162.333 54.5803 162.633 50.1799Z" fill="#D903FF"/>
<path fill-rule="evenodd" clip-rule="evenodd" d="M191.539 70.5549H174.906C173.418 70.5549 172.778 68.6179 173.995 67.759C174.012 67.7465 174.029 67.7343 174.046 67.7224C175.779 66.5245 178.053 66.6335 178.053 66.6335C178.053 66.6335 178.378 60.1516 184.496 60.1516C190.028 60.1516 192.234 65.6129 193.029 68.6217C193.288 69.5993 192.545 70.5549 191.539 70.5549ZM225.164 82.7654H241.798C243.285 82.7654 243.925 80.8287 242.708 79.9695L242.657 79.9331C240.924 78.7353 238.65 78.844 238.65 78.844C238.65 78.844 238.326 72.3624 232.207 72.3624C226.676 72.3624 224.47 77.8237 223.674 80.8322C223.416 81.8097 224.158 82.7654 225.164 82.7654ZM231.608 121.687H248.242C249.729 121.687 250.37 119.75 249.153 118.891C249.136 118.879 249.119 118.866 249.101 118.854C247.369 117.657 245.094 117.765 245.094 117.765C245.094 117.765 244.77 111.284 238.652 111.284C233.12 111.284 230.914 116.745 230.119 119.754C229.86 120.731 230.603 121.687 231.608 121.687ZM185.025 104.414H224.623C227.829 104.414 229.212 100.363 226.587 98.565L226.476 98.4894C222.74 95.9833 217.837 96.2111 217.837 96.2111C217.837 96.2111 217.137 82.6557 203.945 82.6557C197.423 82.6557 192.152 93.5345 192.152 93.5345C192.152 93.5345 183.28 93.5345 181.812 100.37C181.368 102.44 182.856 104.414 185.025 104.414Z" fill="white" stroke="#D903FF" stroke-width="4"/>
<path d="M134.559 116.052C145.179 127.83 160.501 132.503 174.986 130.745C166.391 143.734 151.22 152.165 134.835 151.306C110.012 150.006 90.7609 128.647 92.0596 103.866C93.1854 82.385 108.998 65.3729 129.344 61.6495C119.519 78.5508 120.842 100.837 134.559 116.052Z" stroke="#D903FF" stroke-width="6"/>
</svg>
