<svg width="193" height="154" viewBox="0 0 193 154" fill="none" xmlns="http://www.w3.org/2000/svg">
<path d="M118.814 70.9391H118.868C119.188 75.4721 122.561 75.5419 122.561 75.5419C122.561 75.5419 118.842 75.6145 118.842 80.8525C118.842 75.6145 115.123 75.5419 115.123 75.5419C115.123 75.5419 118.494 75.4721 118.814 70.9391ZM152.948 51.3977H153.002C153.322 55.9307 156.694 56.0005 156.694 56.0005C156.694 56.0005 152.975 56.0731 152.975 61.3111C152.975 56.0731 149.256 56.0005 149.256 56.0005C149.256 56.0005 152.628 55.9307 152.948 51.3977ZM165.05 79.0038H165.104C165.424 83.5368 168.796 83.6066 168.796 83.6066C168.796 83.6066 165.077 83.6792 165.077 88.9172C165.077 83.6792 161.358 83.6066 161.358 83.6066C161.358 83.6066 164.729 83.5368 165.05 79.0038ZM143.949 98.235H144.003C144.323 102.768 147.696 102.838 147.696 102.838C147.696 102.838 143.977 102.91 143.977 108.148C143.977 102.91 140.258 102.838 140.258 102.838C140.258 102.838 143.629 102.768 143.949 98.235ZM189.253 109.091H189.307C189.627 113.624 193 113.694 193 113.694C193 113.694 189.281 113.767 189.281 119.005C189.281 113.767 185.562 113.694 185.562 113.694C185.562 113.694 188.933 113.624 189.253 109.091ZM73.5099 65.666H73.5639C73.8838 70.199 77.2565 70.2688 77.2565 70.2688C77.2565 70.2688 73.5375 70.3414 73.5375 75.5794C73.5375 70.3414 69.8185 70.2688 69.8185 70.2688C69.8185 70.2688 73.1896 70.199 73.5099 65.666ZM17.0345 70.9391H17.0885C17.4084 75.4721 20.7811 75.5419 20.7811 75.5419C20.7811 75.5419 17.0621 75.6145 17.0621 80.8525C17.0621 75.6145 13.3431 75.5419 13.3431 75.5419C13.3431 75.5419 16.7142 75.4721 17.0345 70.9391ZM3.69138 100.406H3.74538C4.0653 104.939 7.438 105.009 7.438 105.009C7.438 105.009 3.719 105.082 3.719 110.32C3.719 105.082 0 105.009 0 105.009C0 105.009 3.37115 104.939 3.69138 100.406ZM63.2698 118.087H63.3238C63.6437 122.62 67.0164 122.689 67.0164 122.689C67.0164 122.689 63.2974 122.762 63.2974 128C63.2974 122.762 59.5784 122.689 59.5784 122.689C59.5784 122.689 62.9496 122.62 63.2698 118.087ZM83.7499 21H83.8039C84.1238 25.533 87.4965 25.6028 87.4965 25.6028C87.4965 25.6028 83.7775 25.6754 83.7775 30.9134C83.7775 25.6754 80.0585 25.6028 80.0585 25.6028C80.0585 25.6028 83.4297 25.533 83.7499 21ZM17.3448 29.6851H17.3988C17.7187 34.218 21.0914 34.2878 21.0914 34.2878C21.0914 34.2878 17.3724 34.3604 17.3724 39.5984C17.3724 34.3604 13.6534 34.2878 13.6534 34.2878C13.6534 34.2878 17.0245 34.218 17.3448 29.6851Z" fill="#E33761"/>
<path d="M118.383 64.6516L136.596 82.8486C137.367 83.6198 137.909 84.5905 138.16 85.652C138.411 86.7135 138.361 87.8238 138.016 88.8585L132.995 103.908C132.729 104.706 132.294 105.438 131.72 106.053C131.146 106.669 130.446 107.154 129.668 107.476C128.89 107.798 128.052 107.949 127.21 107.919C126.369 107.89 125.543 107.68 124.79 107.304L114.226 102.026" stroke="#E33761" stroke-width="5" stroke-linecap="round" stroke-linejoin="round"/>
<path d="M75.0908 102.027L64.5274 107.304C63.7742 107.681 62.9488 107.891 62.1071 107.921C61.2654 107.951 60.4271 107.8 59.649 107.478C58.8708 107.156 58.1711 106.671 57.5971 106.055C57.0231 105.439 56.5883 104.707 56.3221 103.909L51.3018 88.8596C50.9565 87.825 50.9064 86.7147 51.1572 85.6532C51.4079 84.5917 51.9495 83.6209 52.7214 82.8497L70.9348 64.6521" stroke="#E33761" stroke-width="5" stroke-linecap="round" stroke-linejoin="round"/>
<path fill-rule="evenodd" clip-rule="evenodd" d="M118.373 59.4837L113.468 103.584C113.294 105.154 112.545 106.605 111.367 107.658C110.189 108.712 108.663 109.295 107.082 109.295H82.2351C80.6537 109.295 79.1279 108.712 77.9495 107.658C76.7711 106.605 76.023 105.154 75.8481 103.584L70.944 59.4837C69.8369 49.5284 70.9851 39.4518 74.3035 29.9999C77.6219 20.548 83.0256 11.9629 90.1145 4.88005C92.6241 2.37332 96.6925 2.37332 99.2021 4.88005C106.291 11.9629 111.695 20.548 115.013 29.9999C118.332 39.4518 119.48 49.5284 118.373 59.4837V59.4837ZM105.277 136.384L94.6589 150.744L84.0406 136.384C82.588 134.42 81.7095 132.092 81.503 129.659C81.2964 127.226 81.7699 124.784 82.8707 122.604C83.9715 120.423 85.6564 118.592 87.7377 117.312C89.819 116.032 92.2151 115.355 94.6589 115.355C97.1026 115.355 99.4984 116.033 101.579 117.313C103.66 118.593 105.345 120.424 106.446 122.604C107.547 124.784 108.02 127.226 107.814 129.659C107.607 132.092 106.729 134.42 105.277 136.384V136.384Z" stroke="#E33761" stroke-width="5" stroke-linecap="round" stroke-linejoin="round"/>
</svg>
