<svg width="325" height="258" viewBox="0 0 325 258" fill="none" xmlns="http://www.w3.org/2000/svg">
<path d="M251.684 135.11C251.136 133.63 249.045 133.63 248.498 135.11L246.233 141.235C246.148 141.465 246.014 141.674 245.841 141.847C245.668 142.02 245.459 142.154 245.23 142.239L239.109 144.506C237.63 145.053 237.63 147.147 239.109 147.694L245.23 149.961C245.459 150.046 245.668 150.18 245.841 150.353C246.014 150.526 246.148 150.735 246.233 150.965L248.498 157.09C249.045 158.57 251.136 158.57 251.684 157.09L253.949 150.965C254.034 150.735 254.168 150.526 254.341 150.353C254.514 150.18 254.723 150.046 254.952 149.961L261.072 147.694C262.552 147.147 262.552 145.053 261.072 144.506L254.952 142.239C254.723 142.154 254.514 142.02 254.341 141.847C254.167 141.674 254.034 141.465 253.949 141.235L251.684 135.11Z" stroke="url(#paint0_linear_89_2)" stroke-width="4.219"/>
<path d="M126.945 228.294C126.308 226.569 123.871 226.569 123.233 228.294L120.593 235.431C120.494 235.699 120.339 235.942 120.137 236.144C119.935 236.346 119.692 236.502 119.425 236.601L112.292 239.243C110.569 239.88 110.569 242.32 112.292 242.958L119.425 245.599C119.692 245.698 119.935 245.854 120.137 246.056C120.339 246.258 120.494 246.501 120.593 246.769L123.233 253.907C123.871 255.631 126.308 255.631 126.945 253.907L129.585 246.769C129.684 246.501 129.84 246.258 130.042 246.056C130.244 245.854 130.487 245.698 130.754 245.599L137.886 242.958C139.61 242.32 139.61 239.88 137.886 239.243L130.754 236.601C130.487 236.502 130.244 236.346 130.042 236.144C129.84 235.942 129.684 235.699 129.585 235.431L126.945 228.294Z" stroke="url(#paint1_linear_89_2)" stroke-width="4.219"/>
<path d="M14.9873 3.97268C14.5078 2.67577 12.6759 2.67577 12.1965 3.97268L10.2121 9.33803C10.1377 9.53944 10.0207 9.72235 9.86902 9.87423C9.71736 10.0261 9.53467 10.1434 9.33347 10.2179L3.97148 12.2038C2.67617 12.683 2.67617 14.5169 3.97148 14.9967L9.33347 16.9819C9.53462 17.0566 9.71729 17.1738 9.86894 17.3257C10.0206 17.4776 10.1376 17.6605 10.2121 17.8618L12.1965 23.2278C12.6759 24.5241 14.5078 24.5241 14.9873 23.2278L16.9717 17.8618C17.0462 17.6604 17.1634 17.4775 17.3151 17.3256C17.4669 17.1738 17.6496 17.0565 17.8509 16.9819L23.2123 14.9967C24.5082 14.5169 24.5082 12.683 23.2123 12.2038L17.8509 10.2179C17.6496 10.1434 17.4668 10.0262 17.315 9.87434C17.1632 9.72245 17.0461 9.5395 16.9717 9.33803L14.9873 3.97268Z" stroke="url(#paint2_linear_89_2)" stroke-width="4.219"/>
<path d="M317.447 126H317.556C318.201 135.059 325 135.199 325 135.199C325 135.199 317.503 135.344 317.503 145.811C317.503 135.344 310.006 135.199 310.006 135.199C310.006 135.199 316.802 135.059 317.447 126V126ZM43.6031 214.069H43.6996C44.2722 222.268 50.3048 222.395 50.3048 222.395C50.3048 222.395 43.6527 222.526 43.6527 232C43.6527 222.526 37 222.395 37 222.395C37 222.395 43.0304 222.268 43.6031 214.069V214.069Z" fill="url(#paint3_linear_89_2)"/>
<path d="M162.169 89.6143C161.959 88.1903 160.839 87.0542 159.433 86.8423C117.547 80.5268 93.4537 110.608 87 147.482L102.316 163C138.712 156.462 168.402 132.05 162.169 89.6143V89.6143Z" stroke="url(#paint4_linear_89_2)" stroke-width="7.4"/>
<path d="M129.391 119.475C132.897 122.981 138.581 122.98 142.086 119.475C145.592 115.969 145.592 110.285 142.086 106.78C138.581 103.274 132.897 103.274 129.391 106.78C125.886 110.285 125.886 115.969 129.391 119.475Z" stroke="url(#paint5_linear_89_2)" stroke-width="8.4"/>
<path d="M96.2452 119.286L80.5128 114L65 126.689L88.0098 139.823M130.639 153.196L136 168.706L123.13 184L109.808 161.314L130.639 153.196Z" stroke="url(#paint6_linear_89_2)" stroke-width="7.4" stroke-linejoin="round"/>
<path d="M58.121 203L69.4143 191.458M82.879 154L65.9395 171.313L82.879 154ZM49 188.627L60.2929 177.085L49 188.627ZM92 168.373L75.0605 185.687L92 168.373Z" stroke="url(#paint7_linear_89_2)" stroke-width="8.4" stroke-linecap="round"/>
<path d="M140.078 43.642C140.395 42.786 141.605 42.786 141.922 43.642L143.234 47.1853C143.333 47.4545 143.545 47.6671 143.814 47.7664L147.358 49.078C148.214 49.3948 148.214 50.6052 147.358 50.9219L143.814 52.2336C143.545 52.3329 143.333 52.5454 143.234 52.814L141.922 56.358C141.605 57.214 140.395 57.214 140.078 56.358L138.766 52.814C138.717 52.6811 138.64 52.5603 138.539 52.4601C138.439 52.3599 138.318 52.2827 138.185 52.2336L134.642 50.9219C133.786 50.6052 133.786 49.3948 134.642 49.078L138.185 47.7664C138.455 47.6671 138.667 47.4545 138.766 47.1853L140.078 43.642Z" stroke="url(#paint8_linear_89_2)" stroke-width="2.469"/>
<defs>
<linearGradient id="paint0_linear_89_2" x1="250.091" y1="134" x2="250.091" y2="158.2" gradientUnits="userSpaceOnUse">
<stop stop-color="#E33761"/>
<stop offset="1" stop-color="#D903FF"/>
</linearGradient>
<linearGradient id="paint1_linear_89_2" x1="125.09" y1="227" x2="125.09" y2="255.2" gradientUnits="userSpaceOnUse">
<stop stop-color="#E33761"/>
<stop offset="1" stop-color="#D903FF"/>
</linearGradient>
<linearGradient id="paint2_linear_89_2" x1="13.5921" y1="3" x2="13.5921" y2="24.2" gradientUnits="userSpaceOnUse">
<stop stop-color="#E33761"/>
<stop offset="1" stop-color="#D903FF"/>
</linearGradient>
<linearGradient id="paint3_linear_89_2" x1="37" y1="179" x2="325" y2="179" gradientUnits="userSpaceOnUse">
<stop stop-color="#E33761"/>
<stop offset="1" stop-color="#D903FF"/>
</linearGradient>
<linearGradient id="paint4_linear_89_2" x1="125" y1="86" x2="125" y2="163" gradientUnits="userSpaceOnUse">
<stop stop-color="#E33761"/>
<stop offset="1" stop-color="#D903FF"/>
</linearGradient>
<linearGradient id="paint5_linear_89_2" x1="142.086" y1="106.78" x2="129.391" y2="119.475" gradientUnits="userSpaceOnUse">
<stop stop-color="#E33761"/>
<stop offset="1" stop-color="#D903FF"/>
</linearGradient>
<linearGradient id="paint6_linear_89_2" x1="100.5" y1="114" x2="100.5" y2="184" gradientUnits="userSpaceOnUse">
<stop stop-color="#E33761"/>
<stop offset="1" stop-color="#D903FF"/>
</linearGradient>
<linearGradient id="paint7_linear_89_2" x1="70.5" y1="154" x2="70.5" y2="203" gradientUnits="userSpaceOnUse">
<stop stop-color="#E33761"/>
<stop offset="1" stop-color="#D903FF"/>
</linearGradient>
<linearGradient id="paint8_linear_89_2" x1="141" y1="43" x2="141" y2="57" gradientUnits="userSpaceOnUse">
<stop stop-color="#E33761"/>
<stop offset="1" stop-color="#D903FF"/>
</linearGradient>
</defs>
</svg>
