<svg width="44" height="44" viewBox="0 0 44 44" fill="none" xmlns="http://www.w3.org/2000/svg">
<path d="M24.5997 4.75266C23.7358 2.41578 20.4349 2.41578 19.571 4.75266L15.9953 14.4204C15.8613 14.7833 15.6505 15.1129 15.3772 15.3866C15.1039 15.6603 14.7747 15.8715 14.4122 16.0059L4.7505 19.5842C2.4165 20.4476 2.4165 23.7521 4.7505 24.6167L14.4122 28.1939C14.7747 28.3283 15.1038 28.5396 15.3771 28.8133C15.6503 29.087 15.8612 29.4165 15.9953 29.7793L19.571 39.4482C20.4349 41.7839 23.7358 41.7839 24.5997 39.4482L28.1754 29.7793C28.3097 29.4164 28.5208 29.0868 28.7942 28.8132C29.0677 28.5395 29.397 28.3283 29.7596 28.1939L39.4202 24.6167C41.7554 23.7521 41.7554 20.4476 39.4202 19.5842L29.7596 16.0059C29.3969 15.8717 29.0675 15.6605 28.794 15.3868C28.5205 15.1131 28.3095 14.7834 28.1754 14.4204L24.5997 4.75266Z" stroke="url(#paint0_linear_75_25)" stroke-width="4.219"/>
<defs>
<linearGradient id="paint0_linear_75_25" x1="22.0858" y1="3" x2="22.0858" y2="41.2" gradientUnits="userSpaceOnUse">
<stop stop-color="#E33761"/>
<stop offset="1" stop-color="#D903FF"/>
</linearGradient>
</defs>
</svg>
