<svg width="35" height="35" viewBox="0 0 35 35" fill="none" xmlns="http://www.w3.org/2000/svg">
<path d="M19.5108 4.33973C18.8504 2.55342 16.3272 2.55342 15.6668 4.33973L12.9336 11.7297C12.8312 12.0071 12.67 12.2591 12.4611 12.4683C12.2522 12.6775 12.0006 12.839 11.7235 12.9417L4.33808 15.6769C2.55397 16.3369 2.55397 18.8629 4.33808 19.5237L11.7235 22.2581C12.0005 22.3609 12.2521 22.5225 12.461 22.7316C12.6699 22.9408 12.8311 23.1927 12.9336 23.47L15.6668 30.8609C16.3272 32.6464 18.8504 32.6464 19.5108 30.8609L22.244 23.47C22.3467 23.1926 22.508 22.9407 22.7171 22.7316C22.9261 22.5224 23.1778 22.3609 23.455 22.2581L30.8395 19.5237C32.6245 18.8629 32.6245 16.3369 30.8395 15.6769L23.455 12.9417C23.1777 12.8391 22.9259 12.6776 22.7169 12.4684C22.5078 12.2592 22.3465 12.0072 22.244 11.7297L19.5108 4.33973Z" stroke="#BBBBBE" stroke-width="4.219"/>
</svg>
